<?xml version="1.0" standalone="no"?>
<!DOCTYPE svg PUBLIC "-//W3C//DTD SVG 20010904//EN"
 "http://www.w3.org/TR/2001/REC-SVG-20010904/DTD/svg10.dtd">
<svg version="1.0" xmlns="http://www.w3.org/2000/svg"
 width="1024.000000pt" height="372.000000pt" viewBox="0 0 1024.000000 372.000000"
 preserveAspectRatio="xMidYMid meet">

<g transform="translate(0.000000,372.000000) scale(0.100000,-0.100000)"
fill="#000000" stroke="none">
<path d="M2574 3287 c1 -72 -28 -121 -73 -125 l-32 -3 15 28 c8 15 30 44 50
62 20 19 36 39 36 44 0 15 -94 -93 -107 -123 -14 -31 -53 -44 -139 -44 -29 -1
-58 -7 -68 -15 -10 -8 -27 -16 -39 -17 -154 -20 -176 -29 -209 -83 -20 -32
-23 -33 -70 -28 -26 3 -69 15 -95 27 -25 11 -48 19 -50 17 -10 -11 61 -87 99
-105 57 -27 108 -38 91 -21 -19 19 -16 29 10 30 12 1 2 6 -22 11 -37 8 -42 12
-27 20 26 15 166 23 166 10 0 -6 -17 -14 -37 -17 -58 -10 -62 -13 -18 -14 33
-1 45 -7 67 -35 27 -34 97 -66 144 -66 68 0 38 -66 -66 -143 -36 -27 -74 -65
-85 -85 -12 -20 -29 -49 -39 -64 l-18 -28 -217 -2 -216 -3 0 -80 0 -80 60 -5
c55 -5 57 -6 26 -13 -18 -4 -51 -7 -72 -7 l-39 0 0 110 c0 67 4 110 10 110 5
0 9 3 8 8 -2 4 7 23 18 42 12 19 25 51 28 70 l7 35 -16 -27 c-21 -37 -25 -35
-20 10 3 24 0 18 -8 -18 -8 -32 -18 -54 -25 -53 -7 2 -12 -4 -12 -12 0 -8 -4
-15 -10 -15 -5 0 -7 15 -5 33 4 25 2 23 -8 -10 -12 -41 -27 -67 -27 -46 0 5 7
32 15 58 22 75 10 65 -15 -12 -12 -37 -26 -72 -31 -77 -14 -15 -11 10 6 51 8
20 13 39 10 42 -3 3 -8 -5 -12 -17 -3 -12 -11 -22 -18 -22 -8 0 -16 -13 -20
-30 -4 -16 -10 -30 -14 -30 -18 0 -19 15 -6 47 17 41 18 43 7 43 -5 0 -17 -18
-27 -40 -17 -37 -35 -53 -35 -31 0 24 54 131 66 131 8 0 14 6 14 14 0 24 69
93 142 143 37 26 68 50 68 54 0 5 -19 1 -42 -7 -163 -57 -277 -210 -291 -389
-3 -43 -12 -61 -61 -124 -58 -75 -147 -214 -183 -286 -29 -56 -74 -185 -65
-185 4 0 19 33 34 73 15 39 49 109 75 154 47 82 149 213 165 213 18 0 6 -63
-28 -145 -27 -62 -39 -83 -46 -73 -6 9 -7 6 -3 -9 4 -15 0 -25 -13 -32 -11 -6
-22 -8 -24 -5 -3 3 -8 -2 -12 -11 -3 -9 -2 -13 4 -10 16 10 11 -41 -5 -55 -11
-9 -15 -9 -15 -1 0 7 -10 2 -22 -9 -19 -18 -21 -24 -10 -41 10 -16 10 -20 -3
-25 -8 -4 -15 -11 -15 -17 0 -14 -86 -143 -124 -186 -109 -122 -130 -141 -169
-152 -84 -22 -89 11 -11 72 31 24 71 63 90 87 38 50 65 145 46 164 -9 9 -12 5
-12 -19 0 -18 -4 -35 -10 -38 -5 -3 -10 -1 -10 4 0 6 -7 11 -15 11 -8 0 -15
-5 -15 -11 0 -5 5 -7 10 -4 14 8 13 -21 -2 -62 -7 -18 -18 -33 -25 -33 -7 0
-13 -7 -13 -15 0 -8 -7 -15 -15 -15 -8 0 -15 -7 -15 -15 0 -8 -6 -15 -14 -15
-8 0 -16 -8 -18 -17 -2 -10 -9 6 -15 35 -10 49 -2 63 10 17 3 -11 5 -3 4 17
-1 21 3 37 8 37 6 0 9 -19 8 -42 -2 -40 -2 -41 8 -12 5 17 7 42 5 58 -3 15 -1
27 4 27 5 0 11 -15 13 -32 3 -21 4 -16 3 13 -1 39 5 53 39 95 21 27 45 53 52
57 7 4 13 16 13 25 0 15 2 15 10 2 7 -11 10 -6 11 20 0 19 3 29 6 22 2 -6 9
-10 14 -6 5 3 9 -2 9 -10 0 -9 4 -16 8 -16 4 0 6 29 4 65 -3 44 -1 65 7 65 6
0 11 10 11 22 0 17 3 19 12 10 9 -9 9 -17 0 -34 -18 -38 -22 -62 -12 -78 8
-12 10 -9 10 13 0 16 4 26 9 23 5 -3 11 10 13 30 2 19 0 37 -4 40 -11 7 -10
52 2 59 6 3 10 -3 10 -14 0 -12 3 -21 8 -21 4 0 6 18 4 39 -3 32 2 49 27 85
18 25 39 46 47 46 9 0 14 6 11 13 -2 6 2 20 11 30 8 9 13 20 10 22 -3 3 -30
-21 -60 -55 -37 -40 -80 -107 -129 -203 -82 -157 -150 -266 -213 -342 -52 -61
-68 -87 -43 -66 25 20 28 11 20 -45 l-8 -49 -6 40 -6 40 -3 -40 -3 -40 -7 35
-7 35 -2 -42 c0 -23 -6 -45 -12 -48 -17 -11 -22 2 -9 25 6 11 9 26 6 33 -2 7
-8 2 -12 -11 -5 -18 -9 -20 -15 -10 -7 10 -9 10 -9 1 0 -7 -6 -13 -14 -13 -8
0 -24 -13 -36 -30 -22 -31 -40 -35 -100 -24 -22 5 -28 9 -18 15 7 5 22 9 33 9
17 0 17 -2 5 -10 -19 -13 -8 -13 25 0 25 10 27 30 2 30 -7 0 -6 -4 3 -10 13
-9 13 -10 0 -10 -8 0 -21 4 -29 9 -11 7 -4 12 27 22 23 6 39 16 36 21 -3 5 8
13 25 19 34 12 41 29 14 30 -15 0 -15 2 2 9 11 5 16 9 10 10 -5 0 1 7 15 15
14 8 21 15 15 15 -5 1 8 10 30 20 36 17 37 19 10 14 -25 -4 -22 -1 15 16 25
11 35 19 23 16 -38 -7 -26 11 15 22 22 6 29 11 17 12 -17 1 -15 4 10 16 22 11
24 14 7 10 -31 -6 -27 1 10 19 20 9 23 12 9 9 -16 -4 -21 -3 -17 5 4 6 16 11
26 11 23 0 35 16 18 23 -7 3 -4 6 7 6 15 1 17 3 6 10 -11 7 -9 10 7 15 18 6
34 27 36 49 1 4 8 12 16 17 13 9 13 10 0 10 -9 0 -11 3 -5 8 15 11 50 74 116
210 39 80 76 141 107 175 l47 51 -40 -31 c-48 -37 -116 -130 -265 -363 -165
-258 -257 -375 -375 -478 l-50 -44 23 -19 c46 -37 94 -35 223 7 11 4 18 -2 22
-15 4 -17 13 -21 49 -21 23 0 63 9 87 20 51 23 55 24 48 8 -2 -7 -1 -23 4 -35
11 -30 49 -30 75 -2 10 12 41 32 68 45 45 21 51 21 61 7 16 -22 70 -11 128 27
88 59 148 180 163 329 4 46 11 70 18 68 13 -5 12 -40 -3 -124 -18 -99 15 -263
54 -263 8 0 25 20 37 45 12 25 27 44 32 42 6 -2 15 -27 21 -57 14 -74 34 -84
79 -41 l35 34 3 -275 3 -275 27 -41 c15 -23 38 -46 50 -53 17 -8 14 -2 -10 20
-63 59 -62 52 -62 576 0 416 2 475 15 475 13 0 15 -60 15 -481 0 -472 0 -482
21 -516 12 -18 39 -43 60 -54 38 -19 56 -19 487 -17 l447 3 34 24 c18 13 42
42 52 65 17 38 19 74 19 519 0 311 3 477 10 477 6 0 10 -30 10 -70 0 -67 1
-70 20 -60 41 22 65 111 40 150 -6 10 -4 20 7 32 15 17 15 18 -5 18 -12 0 -30
-13 -42 -30 -26 -36 -39 -39 -32 -5 3 17 -1 27 -12 31 -27 11 -18 24 17 24 21
0 41 8 52 20 18 19 17 20 -7 20 -23 0 -68 36 -68 54 0 9 32 4 65 -10 16 -6 14
-1 -10 27 -17 20 -37 34 -46 31 -8 -2 -21 4 -28 12 -12 14 -10 16 10 16 13 0
35 -9 49 -20 14 -11 32 -20 41 -20 9 0 28 -17 42 -37 89 -126 89 -252 -1 -341
-69 -69 -40 -62 33 8 l65 63 0 -31 c0 -63 -33 -112 -76 -112 -29 0 -29 3 -4
-45 11 -22 20 -53 19 -70 0 -27 -2 -25 -25 25 -14 30 -30 66 -35 79 -8 20 -11
21 -26 10 -13 -11 -17 -11 -20 -1 -18 52 -23 -30 -23 -368 0 -360 -1 -383 -20
-420 -33 -65 -103 -100 -203 -100 -45 0 -48 -1 -42 -23 17 -58 51 -111 86
-136 21 -14 38 -30 39 -35 0 -4 -14 -35 -31 -67 -24 -44 -39 -61 -58 -65 -14
-2 -41 -9 -60 -14 -21 -6 -41 -5 -52 0 -32 18 -51 11 -91 -32 -28 -30 -35 -44
-26 -50 7 -4 16 -8 20 -8 4 0 5 -13 2 -29 -6 -27 -4 -29 15 -24 12 3 24 9 27
14 13 22 21 6 11 -21 -13 -36 -4 -49 19 -26 12 12 20 14 27 7 6 -6 19 -11 29
-11 14 0 16 -6 12 -30 -6 -29 8 -42 21 -19 4 6 19 7 35 4 16 -4 38 -1 49 5 25
13 72 110 97 199 15 54 28 75 79 130 79 84 87 117 45 181 -16 25 -30 39 -30
32 0 -7 11 -28 25 -46 29 -38 32 -56 9 -56 -14 0 -14 -3 -4 -15 16 -19 6 -32
-61 -80 -54 -40 -86 -96 -95 -170 -10 -75 -20 -88 -60 -82 -40 7 -46 -9 -8
-23 33 -13 26 -35 -12 -35 -20 0 -32 7 -40 23 -7 15 -14 20 -18 13 -14 -22
-36 -11 -36 18 0 33 -22 46 -51 31 -16 -9 -21 -6 -30 17 -6 15 -15 36 -20 45
-13 26 22 42 55 26 20 -8 32 -8 51 0 14 7 41 12 59 12 42 0 70 30 95 103 l20
57 -34 23 c-38 25 -64 64 -75 113 -7 31 -6 32 19 31 29 -2 51 -18 52 -39 0 -7
5 1 10 17 5 19 16 31 26 32 10 1 24 3 32 5 8 2 18 -12 26 -37 7 -22 13 -32 14
-22 1 10 8 34 17 55 14 33 17 35 24 17 5 -11 9 -14 9 -7 2 25 28 22 93 -8 64
-30 66 -32 58 -59 -4 -16 -4 -44 0 -62 l8 -34 1 38 c1 48 16 77 40 77 27 0 31
-9 16 -43 -8 -21 -10 -40 -4 -61 12 -42 11 -103 -2 -128 -8 -16 -8 -19 1 -13
7 4 19 23 27 42 12 30 12 43 2 84 -10 37 -10 54 -1 74 l12 26 36 -21 c25 -16
43 -20 67 -16 44 9 47 9 90 -2 43 -11 44 -9 17 44 -18 36 -20 36 -14 9 4 -23
3 -26 -5 -15 -10 13 -11 13 -12 0 0 -8 -7 0 -15 19 -8 18 -17 31 -20 28 -3 -3
-1 -15 6 -26 17 -32 -7 -27 -41 10 -34 36 -38 28 -9 -18 l20 -33 -28 0 c-15 0
-44 11 -63 25 -20 13 -59 29 -85 36 -27 7 -70 23 -96 35 -26 13 -57 24 -68 24
-12 0 -30 5 -41 10 -16 9 -17 15 -8 31 10 19 12 19 28 5 28 -25 35 -19 12 11
-27 33 -16 46 11 13 19 -24 19 -23 -1 11 -28 49 -26 61 4 24 14 -16 25 -25 25
-18 0 6 -5 15 -11 18 -6 4 -8 13 -5 21 6 16 -13 64 -26 64 -4 0 -8 18 -8 40 0
22 3 40 8 40 15 0 30 48 18 61 -8 8 -8 13 2 16 10 4 8 9 -5 20 -17 13 -16 14
10 8 15 -3 27 -1 27 5 0 5 -8 10 -17 10 -15 0 -16 2 -3 10 12 8 12 10 -3 16
-24 9 -21 23 3 17 13 -3 22 0 25 11 17 52 17 52 25 31 7 -17 9 -17 9 -2 1 20
17 23 24 5 4 -8 6 -7 6 3 1 9 -6 22 -14 29 -8 7 -15 18 -15 24 0 6 6 4 13 -4
7 -9 25 -17 40 -18 25 -2 27 1 21 20 -6 21 -6 21 10 5 21 -20 43 -12 25 9 -17
21 -8 25 37 13 54 -14 85 -31 81 -43 -3 -8 37 -11 122 -11 116 0 131 -2 183
-27 38 -17 64 -38 78 -60 40 -67 15 -161 -57 -211 -57 -39 -212 -109 -229
-103 -45 17 26 79 138 120 97 36 139 126 86 183 -28 30 -77 38 -144 25 -63
-13 -100 -3 -114 30 -6 15 -7 -21 -3 -104 6 -126 5 -128 -20 -167 -45 -68 -48
-131 -6 -131 19 0 19 1 5 22 -20 29 -21 68 -1 68 8 0 15 -9 15 -20 0 -26 28
-70 45 -70 7 0 24 -9 38 -21 21 -16 31 -18 46 -10 51 28 111 -3 111 -58 0 -15
-12 -46 -26 -67 -28 -41 -28 -61 -8 -252 6 -57 -5 -82 -37 -82 -11 0 -16 -5
-13 -14 3 -7 -9 -25 -25 -39 -17 -14 -31 -33 -31 -43 0 -16 -1 -16 -20 1 -27
24 -48 6 -42 -35 4 -28 22 -54 22 -32 0 6 25 35 55 67 30 31 55 61 55 66 0 6
14 15 30 21 47 16 53 38 31 105 -10 32 -22 88 -26 124 -6 60 -4 68 18 95 54
65 62 116 24 152 -26 25 -55 28 -103 10 -27 -9 -37 -9 -58 6 -14 9 -26 20 -26
25 0 5 28 19 63 31 129 47 212 102 243 161 39 76 2 174 -84 225 l-52 32 45 -6
c25 -2 51 0 58 6 8 7 18 7 27 2 8 -6 25 -10 37 -10 12 0 34 -11 49 -25 15 -14
35 -25 44 -25 9 0 25 -10 36 -21 31 -34 62 -42 94 -22 28 16 30 16 93 -16 51
-26 73 -32 113 -29 38 2 49 7 48 20 -1 9 -36 61 -77 115 -97 127 -121 176
-201 416 -75 227 -121 331 -202 454 -76 117 -165 203 -252 245 -63 30 -70 36
-81 75 -20 65 -72 120 -124 128 -23 4 -55 18 -71 32 -107 90 -230 93 -271 6
-22 -46 -13 -91 29 -146 23 -31 31 -49 25 -58 -5 -8 -9 -29 -9 -48 0 -19 -7
-43 -17 -53 -15 -17 -14 -18 37 -18 50 0 52 1 37 18 -15 17 -20 39 -18 75 1
12 10 17 32 17 l31 0 -36 41 c-42 46 -56 77 -56 124 0 45 29 65 93 65 95 0
162 -57 197 -165 16 -52 19 -56 19 -27 1 18 -4 42 -10 54 -16 31 -5 32 30 2
47 -40 84 -122 48 -108 -7 2 -24 0 -38 -5 -22 -9 -22 -10 10 -8 42 3 52 -18
14 -30 l-28 -10 40 -13 40 -13 -30 -14 -30 -14 35 6 c25 3 31 2 20 -5 -8 -5
-10 -10 -3 -10 6 0 10 -13 9 -30 -1 -16 3 -30 8 -30 13 0 136 -134 136 -148 0
-6 7 -12 15 -16 8 -3 14 -10 13 -15 -2 -5 6 -17 17 -25 l20 -16 -20 6 c-15 5
-13 0 11 -22 16 -16 23 -23 14 -16 -9 6 -19 12 -22 12 -12 0 16 -76 39 -107
20 -28 21 -32 6 -27 -17 5 -17 5 0 -6 9 -6 15 -15 12 -20 -3 -5 -1 -11 4 -15
6 -3 8 3 6 15 -2 11 3 27 12 35 14 14 13 22 -1 85 -23 103 -59 165 -152 260
-46 48 -86 97 -90 114 -6 26 -5 27 15 17 38 -21 131 -122 181 -198 27 -41 72
-129 102 -195 29 -65 54 -115 56 -110 5 17 -108 257 -154 325 -26 37 -79 97
-118 133 -67 62 -69 65 -33 50 21 -9 56 -29 77 -46 54 -43 131 -130 124 -141
-3 -5 2 -9 11 -9 9 0 14 -4 10 -9 -3 -6 3 -15 14 -21 12 -6 18 -16 15 -25 -4
-9 0 -15 10 -15 9 0 16 -5 16 -11 0 -6 -7 -9 -15 -5 -8 3 -15 3 -15 0 0 -2 11
-9 25 -14 14 -5 25 -16 25 -25 0 -8 5 -15 10 -15 6 0 10 -9 10 -19 0 -11 6
-21 13 -24 6 -2 9 -7 5 -11 -3 -4 -17 -3 -30 4 -22 11 -22 10 -4 -4 11 -9 26
-16 34 -16 8 0 12 -6 9 -15 -4 -8 -2 -17 3 -20 18 -11 10 -23 -12 -18 -20 4
-19 2 5 -12 33 -19 37 -41 5 -24 -16 7 -14 3 7 -14 31 -26 29 -50 -2 -27 -10
8 -5 1 11 -15 18 -18 25 -30 17 -33 -9 -3 -9 -7 0 -18 7 -8 9 -17 6 -21 -4 -3
-1 -13 6 -21 10 -13 9 -14 -10 -4 -36 20 -40 13 -5 -9 17 -12 32 -26 32 -31 0
-6 -11 -3 -25 6 -13 9 -28 16 -32 16 -4 0 7 -10 25 -21 35 -23 45 -47 11 -29
-11 7 -23 10 -25 7 -3 -2 9 -10 26 -17 16 -7 30 -16 30 -21 0 -12 -7 -11 -31
1 -10 6 -19 8 -19 6 0 -3 14 -12 30 -21 17 -9 30 -20 30 -26 0 -6 -7 -6 -20 1
-11 6 -20 8 -20 6 0 -3 13 -12 28 -20 16 -8 28 -23 29 -37 1 -12 8 -26 15 -31
11 -6 10 -10 -1 -17 -11 -7 -9 -10 8 -16 28 -9 27 -24 -1 -19 -13 2 -7 -2 12
-9 19 -8 33 -16 30 -19 -3 -3 6 -16 20 -28 l25 -21 -30 5 c-27 5 -26 3 10 -14
22 -10 36 -19 30 -20 -5 -1 0 -5 13 -10 12 -5 22 -16 22 -25 0 -8 7 -15 15
-15 8 0 15 -6 15 -13 0 -7 10 -17 21 -22 12 -6 21 -14 20 -20 -1 -5 8 -12 21
-15 14 -4 24 -15 26 -28 3 -18 -1 -22 -23 -22 -52 0 -225 111 -225 145 0 8 -4
15 -10 15 -5 0 -10 12 -10 28 0 21 -2 24 -10 12 -8 -12 -10 -10 -10 9 0 15 -5
21 -13 18 -9 -3 -13 3 -11 22 1 14 -1 18 -3 9 -9 -36 -20 -16 -17 30 1 26 0
36 -2 22 -11 -52 -24 -44 -26 16 l-1 59 -7 -45 c-7 -45 -7 -45 -10 20 -2 47
-4 54 -7 28 -7 -68 -24 -41 -19 30 4 49 3 56 -3 25 -12 -68 -21 -62 -22 13 -1
101 -18 133 -32 59 -2 -14 -8 -4 -19 30 -9 29 -16 41 -17 28 -1 -12 14 -71 32
-131 37 -122 89 -218 172 -316 30 -35 51 -66 48 -70 -17 -16 -53 -2 -90 37
-36 36 -59 78 -111 197 -8 20 -11 21 -11 6 -1 -10 17 -56 39 -102 l39 -85 -28
21 c-16 11 -46 54 -68 95 -21 41 -42 75 -46 75 -12 0 1 -38 30 -88 14 -24 23
-46 20 -49 -11 -11 -67 29 -96 69 -40 54 -41 41 -1 -17 17 -24 26 -46 21 -49
-5 -3 -19 9 -30 27 l-22 32 6 -30 c6 -29 6 -29 -9 -11 -9 11 -16 23 -16 28 0
4 -5 8 -10 8 -7 0 -7 -6 0 -20 7 -12 7 -20 1 -20 -5 0 -13 10 -17 23 -7 21 -7
21 -15 2 -6 -16 -8 -17 -8 -3 -1 9 -5 19 -10 22 -5 4 -7 -4 -5 -16 3 -18 1
-16 -11 7 -12 23 -15 25 -11 8 2 -13 0 -23 -5 -23 -5 0 -9 6 -9 14 0 8 -4 18
-10 21 -6 3 -7 -1 -4 -9 3 -9 3 -16 0 -16 -4 0 -11 10 -16 23 -8 20 -9 20 -10
2 -1 -18 -2 -18 -16 5 -8 14 -13 17 -10 8 3 -10 2 -18 -3 -18 -5 0 -12 10 -16
23 -4 15 -8 18 -12 8 -4 -10 -10 -5 -20 15 -7 16 -11 21 -8 12 6 -25 -12 -22
-20 2 -4 11 -11 18 -16 15 -12 -8 -47 51 -61 105 -11 40 -13 42 -18 20 -17
-67 81 -192 195 -247 l70 -35 -60 6 c-33 3 -78 2 -100 -4 -32 -7 -43 -6 -58 8
-10 9 -55 29 -100 43 l-82 25 2 38 c2 29 12 46 46 79 42 42 69 87 81 140 3 15
2 27 -3 27 -5 0 -12 -12 -16 -27 -8 -34 -49 -89 -75 -103 -17 -9 -22 -7 -31
13 -9 20 -6 28 20 56 37 39 47 87 31 144 -6 23 -13 66 -15 94 -2 29 -13 73
-24 99 l-21 46 28 33 c15 19 30 34 33 34 11 2 20 -84 13 -127 -7 -47 1 -56 16
-17 5 14 14 25 19 25 20 0 72 -78 87 -130 24 -87 45 -140 55 -140 5 0 3 13 -5
29 -9 16 -20 51 -26 77 -5 27 -20 70 -32 97 l-22 47 23 41 c31 54 39 151 18
199 l-15 35 -2 -50 c-1 -45 -2 -48 -14 -32 -13 16 -14 14 -12 -22 3 -55 -9
-52 -29 7 -16 48 -54 123 -55 109 0 -4 9 -26 20 -47 24 -47 53 -167 44 -181
-12 -20 -32 12 -38 64 -12 91 -96 246 -96 176 0 -11 4 -18 9 -15 11 7 31 -46
31 -80 0 -38 -22 -74 -48 -81 -29 -7 -56 7 -60 31 -3 12 4 16 32 16 19 0 37 3
39 8 3 4 -14 5 -38 4 -24 -2 -52 1 -62 7 -15 8 -10 10 25 11 l42 0 0 85 0 85
-217 2 c-162 2 -217 6 -221 16 -2 7 5 12 16 12 14 0 19 5 16 18 -3 9 2 36 10
58 l14 42 -44 -44 c-24 -24 -49 -44 -57 -44 -7 0 -27 13 -44 29 -18 16 -34 26
-37 23 -3 -3 -6 3 -7 14 0 10 -3 13 -6 7 -9 -23 -25 -14 -18 10 7 21 6 21 -7
3 -8 -10 -20 -16 -26 -12 -7 4 -12 4 -12 -1 0 -4 19 -14 43 -21 139 -44 268
-227 329 -469 20 -76 23 -113 22 -278 0 -174 -3 -199 -27 -290 -56 -207 -169
-376 -292 -436 -73 -35 -190 -34 -260 3 -215 113 -354 479 -317 836 16 153 43
256 97 369 51 105 132 199 208 243 27 15 44 30 39 34 -5 3 -15 -1 -22 -9 -7
-8 -17 -15 -22 -15 -5 0 -18 -9 -30 -20 -33 -30 -35 -14 -3 20 15 16 33 27 38
23 6 -3 7 -1 3 5 -4 6 21 27 61 50 78 46 99 66 108 105 6 21 12 26 26 22 14
-5 17 -2 13 8 -7 19 -48 37 -87 38 -18 0 -54 8 -82 18 l-50 18 36 7 c19 3 50
3 69 0 25 -6 32 -4 28 7 -7 21 -64 51 -121 64 -60 13 -82 39 -53 61 27 19 54
18 99 -6 42 -22 49 -18 15 10 -21 17 -22 19 -5 26 10 3 30 1 44 -5 35 -16 41
-6 7 12 -35 18 -17 29 29 16 29 -8 47 -6 94 11 93 32 152 23 111 -18 -10 -10
-10 -15 2 -22 11 -7 17 -4 24 13 4 12 12 32 17 44 4 12 32 37 61 56 29 18 59
41 67 50 33 40 43 -28 12 -79 -11 -18 -38 -46 -60 -64 -22 -18 -43 -41 -46
-50 -3 -9 -15 -22 -28 -28 -18 -9 -19 -11 -4 -11 12 -1 17 -9 17 -31 0 -21 5
-30 18 -31 9 -1 24 -2 32 -3 8 0 19 -11 26 -24 6 -12 13 -25 16 -28 9 -8 8
103 0 127 -7 18 -2 33 22 66 24 34 31 56 34 106 2 34 -1 75 -8 92 l-11 29 -19
-41 c-30 -67 -80 -85 -80 -28 0 32 -23 105 -33 105 -2 0 -4 -24 -3 -53z m-708
-302 c10 -8 14 -15 8 -15 -5 0 -19 7 -30 15 -10 8 -14 15 -8 15 5 0 19 -7 30
-15z m299 -38 c12 -10 14 -16 7 -21 -15 -9 -54 12 -47 25 8 12 18 11 40 -4z
m1152 -353 c-3 -3 -12 -4 -19 -1 -8 3 -5 6 6 6 11 1 17 -2 13 -5z m-1727 -84
c0 -13 -9 -22 -27 -26 -33 -8 -63 -32 -63 -51 0 -7 -5 -13 -11 -13 -5 0 -7 -5
-4 -10 4 -6 -5 -35 -20 -66 -14 -30 -25 -63 -24 -72 1 -9 1 -24 0 -32 -1 -13
-2 -13 -11 0 -14 22 -11 109 5 155 8 21 12 41 10 44 -7 7 -26 -52 -32 -100 -3
-29 -10 -46 -19 -46 -16 0 -27 25 -17 40 4 7 8 31 8 54 2 53 15 69 64 76 22 3
59 19 83 36 51 36 58 37 58 11z m-29 -226 c-42 -47 -58 -81 -66 -139 -4 -28
-12 -60 -16 -72 -5 -13 -5 -23 -1 -23 4 0 15 22 25 49 21 61 95 173 110 168
33 -11 40 -142 8 -142 -8 0 -16 -7 -18 -15 -4 -13 -3 -13 6 0 5 8 13 11 17 7
10 -10 -43 -75 -76 -92 -41 -21 -58 -19 -91 14 -51 51 -34 113 75 270 51 75
51 75 54 43 3 -25 -4 -41 -27 -68z m119 22 c0 -17 -24 -38 -33 -29 -15 15 -6
43 13 43 11 0 20 -6 20 -14z m76 -2 c13 -3 24 -12 24 -20 0 -8 5 -14 12 -14 8
0 9 -3 2 -10 -8 -8 -20 -6 -41 6 -40 24 -63 13 -62 -28 0 -31 1 -31 10 -10 6
17 15 22 31 20 19 -2 24 -10 26 -41 3 -36 2 -38 -20 -32 -60 18 -90 55 -70 84
7 9 17 27 22 40 7 15 16 21 26 17 9 -3 27 -9 40 -12z m1458 0 c3 -8 2 -12 -4
-9 -6 3 -10 10 -10 16 0 14 7 11 14 -7z m-354 -84 c0 -5 -10 -10 -22 -9 -22 0
-22 1 -3 9 11 5 21 9 23 9 1 1 2 -3 2 -9z m-1469 -107 c23 -24 42 -92 30 -108
-5 -5 -12 -39 -15 -74 -20 -176 -107 -311 -203 -311 -31 0 -33 2 -33 33 0 40
30 107 71 158 17 22 29 42 27 45 -5 4 -35 -28 -88 -94 -49 -62 -55 -68 -72
-75 -11 -4 -18 -20 -20 -49 -2 -34 -7 -44 -23 -47 -11 -2 -23 -8 -27 -15 -4
-6 -8 4 -8 22 0 21 -4 31 -11 26 -6 -3 -8 -17 -4 -31 6 -26 -11 -57 -26 -47
-5 3 -9 0 -9 -5 0 -6 -7 -11 -15 -11 -10 0 -15 10 -15 31 0 25 13 46 64 99 35
38 97 118 137 178 64 96 75 108 86 94 11 -15 12 -12 13 21 0 21 8 52 17 70 9
18 17 37 17 42 1 6 12 43 25 84 l25 75 18 -45 c11 -24 28 -54 39 -66z m421 65
c-13 -13 -32 -2 -32 18 0 12 4 13 21 3 14 -7 18 -14 11 -21z m-84 -18 c16 0
22 -6 22 -21 0 -17 -5 -20 -21 -16 -16 4 -18 3 -8 -9 6 -8 18 -14 25 -14 8 0
14 -4 14 -10 0 -15 -43 -12 -68 6 -46 32 -52 82 -8 70 11 -3 31 -6 44 -6z m62
-34 c0 -11 -19 -15 -25 -6 -3 5 1 10 9 10 9 0 16 -2 16 -4z m1061 -11 c-1 -15
-24 -12 -29 3 -3 9 2 13 12 10 10 -1 17 -7 17 -13z m-1174 -27 c19 -17 23 -32
23 -76 l0 -55 -21 19 -21 19 7 -55 c6 -51 3 -71 -30 -200 -13 -52 28 33 46 95
l18 60 0 -58 c1 -39 -5 -70 -19 -97 -11 -22 -20 -45 -20 -51 0 -7 8 -5 20 6
19 18 20 17 20 -7 0 -28 -40 -71 -56 -60 -47 30 -56 216 -17 370 3 12 1 22 -5
22 -15 0 -44 -117 -50 -205 -4 -62 -11 -88 -30 -117 -14 -21 -30 -38 -38 -38
-26 0 -43 158 -28 253 4 24 12 37 22 37 12 0 14 -11 8 -67 -4 -38 -10 -86 -13
-107 -4 -28 -3 -37 5 -32 7 4 12 31 12 59 1 82 18 137 56 179 19 21 44 59 56
83 12 25 24 45 27 45 3 0 15 -10 28 -22z m2010 -240 c-2 -13 -4 -3 -4 22 0 25
2 35 4 23 2 -13 2 -33 0 -45z m-2900 -190 c-3 -7 -5 -2 -5 12 0 14 2 19 5 13
2 -7 2 -19 0 -25z m-102 -57 c-3 -12 -11 -21 -16 -21 -6 0 -8 3 -6 8 2 4 7 16
11 26 9 25 20 13 11 -13z m445 25 c0 -2 -7 -6 -15 -10 -8 -3 -15 -1 -15 4 0 6
7 10 15 10 8 0 15 -2 15 -4z m2391 -232 c11 -10 19 -30 19 -50 0 -42 -49 -86
-147 -131 -72 -33 -103 -41 -103 -25 0 24 40 196 47 203 14 14 86 28 126 24
21 -2 47 -11 58 -21z m-617 -89 c-4 -8 -8 -15 -10 -15 -2 0 -4 7 -4 15 0 8 4
15 10 15 5 0 7 -7 4 -15z"/>
<path d="M1346 1998 c-11 -82 -15 -130 -11 -126 11 10 53 148 46 148 -4 0 -12
-17 -18 -37 l-11 -38 5 48 c7 58 -4 63 -11 5z"/>
<path d="M1323 1980 c0 -30 2 -43 4 -27 2 15 2 39 0 55 -2 15 -4 2 -4 -28z"/>
<path d="M1303 1960 c0 -25 2 -35 4 -22 2 12 2 32 0 45 -2 12 -4 2 -4 -23z"/>
<path d="M1356 1846 c-19 -49 -76 -139 -83 -132 -3 3 11 34 31 69 19 35 33 67
30 70 -7 7 -94 -168 -94 -186 1 -7 16 5 35 26 37 43 121 197 107 197 -5 0 -17
-20 -26 -44z"/>
<path d="M1216 1864 c-8 -20 -8 -24 2 -24 4 0 8 9 9 20 2 24 -3 26 -11 4z"/>
<path d="M1165 1837 c-9 -19 -32 -54 -52 -76 -41 -48 -36 -70 6 -26 31 34 77
122 69 131 -4 3 -14 -10 -23 -29z"/>
<path d="M1057 1652 c-18 -19 -23 -52 -9 -52 12 0 35 46 30 60 -2 7 -10 5 -21
-8z"/>
<path d="M8995 2910 c0 -228 1 -322 2 -208 2 115 2 301 0 415 -1 115 -2 21 -2
-207z"/>
<path d="M4638 3273 c50 -2 134 -2 185 0 50 1 9 3 -93 3 -102 0 -143 -2 -92
-3z"/>
<path d="M2670 3180 c-6 -11 -29 -29 -50 -40 -26 -13 -40 -27 -40 -40 0 -11 5
-20 12 -20 16 0 98 87 98 105 0 21 -7 19 -20 -5z"/>
<path d="M5015 3130 c10 -11 20 -20 23 -20 3 0 -3 9 -13 20 -10 11 -20 20 -23
20 -3 0 3 -9 13 -20z"/>
<path d="M6298 3083 c7 -3 16 -2 19 1 4 3 -2 6 -13 5 -11 0 -14 -3 -6 -6z"/>
<path d="M7083 3083 c15 -2 39 -2 55 0 15 2 2 4 -28 4 -30 0 -43 -2 -27 -4z"/>
<path d="M7365 3078 c-3 -7 -4 -141 -2 -298 l2 -285 3 293 2 292 45 0 45 0 0
-45 c0 -25 4 -45 8 -45 4 0 5 21 2 48 l-5 47 -48 3 c-32 2 -49 -1 -52 -10z"/>
<path d="M2465 3070 c-3 -6 1 -7 9 -4 18 7 21 14 7 14 -6 0 -13 -4 -16 -10z"/>
<path d="M2310 3028 c-32 -9 -33 -11 -15 -21 11 -6 25 -17 31 -25 8 -10 21
-13 50 -8 65 11 72 21 33 45 -37 23 -48 24 -99 9z"/>
<path d="M6019 3023 c-13 -16 -12 -17 4 -4 9 7 17 15 17 17 0 8 -8 3 -21 -13z"/>
<path d="M2175 3020 c3 -5 13 -10 21 -10 8 0 14 5 14 10 0 6 -9 10 -21 10 -11
0 -17 -4 -14 -10z"/>
<path d="M9670 3005 c13 -14 26 -25 28 -25 3 0 -5 11 -18 25 -13 14 -26 25
-28 25 -3 0 5 -11 18 -25z"/>
<path d="M2477 3004 c3 -7 9 -14 14 -14 14 0 10 17 -5 23 -10 4 -13 1 -9 -9z"/>
<path d="M6208 3003 c6 -2 18 -2 25 0 6 3 1 5 -13 5 -14 0 -19 -2 -12 -5z"/>
<path d="M9590 2945 c13 -14 26 -25 28 -25 3 0 -5 11 -18 25 -13 14 -26 25
-28 25 -3 0 5 -11 18 -25z"/>
<path d="M7519 2943 c-13 -16 -12 -17 4 -4 16 13 21 21 13 21 -2 0 -10 -8 -17
-17z"/>
<path d="M8820 2956 c0 -2 8 -10 18 -17 15 -13 16 -12 3 4 -13 16 -21 21 -21
13z"/>
<path d="M1650 2934 c-197 -52 -377 -220 -397 -373 -5 -37 -4 -39 16 -34 11 3
21 12 21 19 0 8 6 14 13 14 8 0 7 4 -3 10 -12 8 -12 10 5 10 17 0 17 2 5 10
-12 8 -11 11 9 17 23 6 24 7 5 14 -19 7 -19 8 1 8 17 1 17 3 5 11 -10 6 -11
10 -2 10 6 0 12 6 12 13 0 7 8 22 18 33 10 11 17 25 14 32 -2 7 6 12 20 13 13
0 17 3 10 6 -17 7 -5 23 18 23 13 0 17 5 14 15 -4 8 -1 15 4 15 6 0 23 11 38
25 61 57 203 107 272 97 22 -3 23 -4 5 -17 -17 -14 -17 -14 5 -15 29 0 62 -34
62 -64 0 -13 -9 -35 -21 -50 -12 -16 -18 -33 -14 -45 3 -11 1 -40 -6 -65 -10
-40 -13 -44 -30 -33 -27 17 -34 2 -16 -35 9 -18 13 -36 11 -40 -3 -4 13 -8 36
-8 l41 0 -21 31 c-20 27 -21 32 -7 47 22 24 30 63 19 92 -7 19 -3 32 19 64 39
57 42 108 9 144 -17 18 -31 22 -78 21 -31 0 -82 -7 -112 -15z"/>
<path d="M2525 2932 c6 -21 4 -23 -17 -18 -23 6 -23 6 -1 -5 14 -7 23 -23 26
-43 3 -23 4 -20 5 14 1 25 -3 52 -9 60 -8 12 -9 10 -4 -8z"/>
<path d="M2550 2924 c0 -8 5 -12 10 -9 6 4 8 11 5 16 -9 14 -15 11 -15 -7z"/>
<path d="M6082 2920 c0 -14 2 -19 5 -12 2 6 2 18 0 25 -3 6 -5 1 -5 -13z"/>
<path d="M5019 2883 c-13 -16 -12 -17 4 -4 16 13 21 21 13 21 -2 0 -10 -8 -17
-17z"/>
<path d="M8131 2863 c-1 -21 -6 -22 -103 -26 l-103 -3 103 -2 c82 -2 104 1
108 13 3 8 4 20 1 27 -3 7 -6 3 -6 -9z"/>
<path d="M2597 2863 c-11 -10 -8 -25 3 -18 6 4 18 1 26 -6 28 -23 34 -55 20
-109 -7 -27 -11 -50 -9 -50 13 0 33 78 33 130 l0 60 -33 0 c-19 0 -37 -3 -40
-7z"/>
<path d="M3083 2835 c39 -36 47 -62 22 -71 -23 -9 1 -34 31 -34 52 0 18 92
-46 125 -46 24 -48 18 -7 -20z"/>
<path d="M6541 2854 c0 -11 3 -14 6 -6 3 7 2 16 -1 19 -3 4 -6 -2 -5 -13z"/>
<path d="M1705 2840 c-3 -6 1 -7 9 -4 18 7 21 14 7 14 -6 0 -13 -4 -16 -10z"/>
<path d="M5273 2790 c0 -30 2 -43 4 -27 2 15 2 39 0 55 -2 15 -4 2 -4 -28z"/>
<path d="M2601 2814 c0 -11 3 -14 6 -6 3 7 2 16 -1 19 -3 4 -6 -2 -5 -13z"/>
<path d="M6642 2810 c0 -14 2 -19 5 -12 2 6 2 18 0 25 -3 6 -5 1 -5 -13z"/>
<path d="M5882 2790 c0 -19 2 -27 5 -17 2 9 2 25 0 35 -3 9 -5 1 -5 -18z"/>
<path d="M1607 2770 c-50 -44 -123 -138 -114 -146 3 -3 11 5 17 18 7 12 44 56
83 96 79 79 85 94 14 32z"/>
<path d="M2544 2792 c-7 -11 -7 -25 0 -44 12 -33 26 -37 26 -7 0 11 -4 17 -10
14 -5 -3 -10 3 -10 14 0 10 5 21 12 23 7 3 8 7 2 11 -5 3 -15 -2 -20 -11z"/>
<path d="M8381 2794 c0 -11 3 -14 6 -6 3 7 2 16 -1 19 -3 4 -6 -2 -5 -13z"/>
<path d="M9652 2790 c0 -14 2 -19 5 -12 2 6 2 18 0 25 -3 6 -5 1 -5 -13z"/>
<path d="M7051 2774 c0 -11 3 -14 6 -6 3 7 2 16 -1 19 -3 4 -6 -2 -5 -13z"/>
<path d="M1695 2769 c-4 -6 -5 -12 -2 -15 2 -3 7 2 10 11 7 17 1 20 -8 4z"/>
<path d="M6541 2764 c0 -11 3 -14 6 -6 3 7 2 16 -1 19 -3 4 -6 -2 -5 -13z"/>
<path d="M8133 2715 c0 -27 2 -38 4 -22 2 15 2 37 0 50 -2 12 -4 0 -4 -28z"/>
<path d="M2367 2705 c-31 -52 -56 -61 -32 -12 l16 32 -20 -25 c-11 -14 -21
-28 -21 -32 0 -5 -7 -8 -15 -8 -14 0 -13 3 1 28 l16 27 -21 -25 c-29 -35 -27
-40 22 -40 40 1 43 3 65 47 30 60 24 64 -11 8z"/>
<path d="M2455 2713 c-8 -20 -13 -38 -10 -41 3 -3 5 -3 5 0 0 3 7 22 15 42 8
20 13 36 10 36 -2 0 -12 -16 -20 -37z"/>
<path d="M4718 2733 c34 -2 90 -2 125 0 34 2 6 3 -63 3 -69 0 -97 -1 -62 -3z"/>
<path d="M1605 2685 c-3 -26 -4 -49 -2 -51 3 -3 8 16 12 41 3 26 4 49 2 51 -3
3 -8 -16 -12 -41z"/>
<path d="M6320 2716 c0 -2 8 -10 18 -17 15 -13 16 -12 3 4 -13 16 -21 21 -21
13z"/>
<path d="M1582 2685 c0 -16 2 -22 5 -12 2 9 2 23 0 30 -3 6 -5 -1 -5 -18z"/>
<path d="M2570 2701 c0 -6 4 -13 10 -16 6 -3 7 1 4 9 -7 18 -14 21 -14 7z"/>
<path d="M3157 2689 c7 -7 15 -10 18 -7 3 3 -2 9 -12 12 -14 6 -15 5 -6 -5z"/>
<path d="M3062 2661 c-19 -52 -5 -99 49 -170 27 -35 52 -75 55 -88 4 -12 10
-23 15 -23 12 0 12 3 -7 77 -20 82 -14 97 18 42 26 -44 84 -96 95 -85 3 3 -8
36 -25 73 -17 38 -34 85 -37 106 -7 38 -19 48 -28 23 -3 -8 -1 -17 6 -20 8 -3
7 -5 -2 -5 -13 -1 -12 -3 0 -13 18 -15 62 -128 50 -128 -12 0 -53 65 -84 133
-14 31 -31 57 -36 57 -6 0 -12 -19 -13 -42 l-1 -43 -7 50 c-4 28 -8 38 -8 23
-3 -46 -21 -31 -24 20 l-3 47 -13 -34z"/>
<path d="M6351 2664 c0 -11 3 -14 6 -6 3 7 2 16 -1 19 -3 4 -6 -2 -5 -13z"/>
<path d="M3160 2666 c0 -2 7 -7 16 -10 8 -3 12 -2 9 4 -6 10 -25 14 -25 6z"/>
<path d="M9305 2640 c10 -11 20 -20 23 -20 3 0 -3 9 -13 20 -10 11 -20 20 -23
20 -3 0 3 -9 13 -20z"/>
<path d="M2238 2643 c7 -3 16 -2 19 1 4 3 -2 6 -13 5 -11 0 -14 -3 -6 -6z"/>
<path d="M6590 2637 c0 -2 15 -16 33 -33 l32 -29 -29 33 c-28 30 -36 37 -36
29z"/>
<path d="M6329 2613 c-13 -16 -12 -17 4 -4 9 7 17 15 17 17 0 8 -8 3 -21 -13z"/>
<path d="M7840 2616 c0 -2 8 -10 18 -17 15 -13 16 -12 3 4 -13 16 -21 21 -21
13z"/>
<path d="M7053 2570 c0 -25 2 -35 4 -22 2 12 2 32 0 45 -2 12 -4 2 -4 -23z"/>
<path d="M2298 2593 c12 -2 32 -2 45 0 12 2 2 4 -23 4 -25 0 -35 -2 -22 -4z"/>
<path d="M9225 2580 c10 -11 20 -20 23 -20 3 0 -3 9 -13 20 -10 11 -20 20 -23
20 -3 0 3 -9 13 -20z"/>
<path d="M2378 2583 c7 -3 16 -2 19 1 4 3 -2 6 -13 5 -11 0 -14 -3 -6 -6z"/>
<path d="M8888 2553 c5 -59 10 -63 11 -10 1 26 -3 47 -7 47 -4 0 -6 -17 -4
-37z"/>
<path d="M2159 2541 c-141 -101 -234 -327 -246 -593 -10 -214 29 -406 113
-555 37 -66 113 -152 154 -173 21 -10 23 -10 13 1 -7 7 -13 30 -13 51 l0 38
21 -21 c64 -64 165 -64 233 -1 l28 27 -3 -47 c-5 -55 3 -53 68 14 219 228 265
734 97 1073 -36 73 -96 151 -142 184 l-27 19 3 -70 c4 -79 -5 -98 -46 -90 -27
5 -27 5 -8 -16 18 -21 18 -22 -4 -30 -19 -7 -20 -10 -7 -15 10 -4 14 -13 11
-22 -4 -10 0 -15 12 -15 14 -1 8 -11 -25 -40 -39 -33 -49 -38 -80 -32 -33 5
-131 74 -131 92 0 4 15 11 33 15 l32 8 -28 4 c-15 3 -25 9 -22 14 4 5 2 9 -3
9 -5 0 -10 40 -11 89 -2 89 -1 90 26 105 15 8 23 15 17 16 -6 0 -35 -18 -65
-39z m301 -343 l0 -91 -27 24 c-16 13 -41 35 -56 49 l-28 25 48 42 c26 23 51
42 56 43 4 0 7 -41 7 -92z m-200 -10 c0 -16 -11 -38 -27 -55 -47 -47 -53 -41
-53 58 l0 90 40 -33 c28 -23 40 -41 40 -60z m113 -132 l87 -79 0 -53 c0 -48
-2 -53 -27 -63 -27 -10 -27 -10 -3 -8 24 2 25 -1 28 -55 2 -38 7 -58 15 -58
19 0 154 -66 162 -80 7 -11 -41 -90 -56 -90 -4 0 -11 5 -14 10 -4 6 -29 22
-56 35 l-49 25 0 -75 c0 -43 4 -75 10 -75 6 0 10 -14 10 -30 l0 -31 -67 3
c-64 3 -68 4 -71 28 -2 14 -12 32 -24 39 -11 7 -17 8 -14 2 4 -5 2 -13 -4 -16
-6 -4 -10 -16 -8 -28 3 -20 -2 -22 -55 -25 -52 -3 -58 -1 -66 20 -6 15 -5 24
3 26 14 3 9 162 -5 162 -18 0 -80 -29 -106 -50 l-26 -20 -29 42 c-15 24 -28
46 -28 49 0 10 91 55 148 74 l52 17 0 59 c0 39 4 59 12 59 9 0 9 3 0 12 -16
16 -17 204 0 214 7 5 8 3 2 -7 -4 -8 10 1 31 19 22 18 45 31 51 30 6 -2 50
-39 97 -82z m-207 15 c-11 -18 -147 -124 -152 -118 -3 3 30 32 73 65 81 63 88
68 79 53z"/>
<path d="M2216 1884 c-9 -24 -9 -24 30 -24 24 0 34 -4 31 -12 -2 -7 -16 -13
-30 -13 -16 1 -27 -5 -27 -13 0 -10 8 -12 30 -7 l30 7 -22 -38 c-12 -21 -17
-34 -10 -30 20 12 42 -13 42 -46 0 -44 33 -34 40 12 4 27 9 34 24 32 17 -3 17
-1 -4 32 l-22 36 34 -2 c32 -3 33 -2 33 37 0 30 -4 39 -15 36 -31 -7 -116 -7
-137 0 -15 6 -23 3 -27 -7z m172 -36 c-3 -7 -15 -13 -28 -13 -13 0 -25 6 -27
13 -3 8 6 12 27 12 21 0 30 -4 28 -12z m-82 -100 c-15 -10 -16 -6 -9 22 6 22
7 22 13 4 4 -10 2 -22 -4 -26z m9 -48 c3 -5 1 -10 -4 -10 -6 0 -11 5 -11 10 0
6 2 10 4 10 3 0 8 -4 11 -10z"/>
<path d="M2201 1729 c1 -8 5 -25 9 -39 7 -21 8 -22 9 -5 1 16 3 17 11 5 14
-22 23 -5 15 27 -4 15 -10 22 -12 15 -4 -10 -8 -10 -19 -1 -11 9 -14 8 -13 -2z"/>
<path d="M2344 1726 c-9 -23 0 -51 16 -51 10 0 16 12 18 33 2 24 -1 32 -13 32
-8 0 -18 -6 -21 -14z m22 -33 c-11 -11 -19 6 -11 24 8 17 8 17 12 0 3 -10 2
-21 -1 -24z"/>
<path d="M2154 1716 c-9 -24 0 -51 19 -54 15 -3 18 2 15 29 -3 35 -24 51 -34
25z m26 -27 c0 -11 -4 -17 -10 -14 -5 3 -10 15 -10 26 0 11 5 17 10 14 6 -3
10 -15 10 -26z"/>
<path d="M2397 1706 c-8 -29 -5 -41 10 -35 5 2 6 18 3 34 l-6 30 -7 -29z"/>
<path d="M2445 1706 c-3 -9 -7 -23 -10 -31 -2 -8 -1 -15 4 -15 5 0 11 12 14
28 6 30 0 44 -8 18z"/>
<path d="M2471 1688 c-1 -44 11 -49 27 -13 15 33 15 46 0 20 -12 -19 -12 -19
-19 5 -6 21 -7 20 -8 -12z"/>
<path d="M2110 1694 c0 -14 -3 -14 -15 -4 -12 10 -15 9 -15 -6 0 -34 15 -47
37 -35 11 5 23 7 27 4 3 -4 1 8 -5 25 -12 34 -29 43 -29 16z"/>
<path d="M2517 1665 c-15 -22 -16 -25 -2 -25 8 0 15 -6 16 -12 1 -18 17 23 18
45 1 24 -11 21 -32 -8z"/>
<path d="M2051 1675 c0 -18 28 -61 29 -44 0 8 -7 24 -15 35 -8 10 -14 15 -14
9z"/>
<path d="M2566 1648 c-23 -33 -19 -47 6 -18 13 15 19 18 15 8 -18 -48 -18 -52
2 -28 25 30 25 34 7 49 -11 10 -17 7 -30 -11z"/>
<path d="M2005 1650 c-3 -6 6 -15 22 -21 22 -8 24 -12 13 -19 -13 -8 -12 -10
3 -10 24 0 21 31 -4 37 -16 4 -17 8 -7 14 10 7 9 9 -4 9 -9 0 -20 -5 -23 -10z"/>
<path d="M2242 1620 c0 -14 2 -19 5 -12 2 6 2 18 0 25 -3 6 -5 1 -5 -13z"/>
<path d="M2272 1618 c5 -32 28 -35 28 -4 0 17 -5 26 -16 26 -10 0 -14 -7 -12
-22z"/>
<path d="M2319 1631 c9 -6 10 -11 2 -15 -15 -10 -14 -26 2 -26 7 0 14 11 15
25 1 18 -3 25 -16 25 -13 0 -14 -2 -3 -9z"/>
<path d="M2364 1624 c3 -8 2 -12 -4 -9 -6 3 -10 2 -10 -3 0 -6 7 -12 15 -16
11 -4 15 1 15 19 0 14 -5 25 -11 25 -6 0 -8 -7 -5 -16z"/>
<path d="M2191 1524 c0 -11 3 -14 6 -6 3 7 2 16 -1 19 -3 4 -6 -2 -5 -13z"/>
<path d="M2347 1519 c6 -23 9 -24 16 -5 3 8 0 17 -7 19 -10 4 -12 -1 -9 -14z"/>
<path d="M2247 1519 c7 -7 15 -10 18 -7 3 3 -2 9 -12 12 -14 6 -15 5 -6 -5z"/>
<path d="M3017 2566 c-3 -8 1 -17 9 -20 8 -3 14 -19 14 -38 0 -23 3 -29 11
-21 7 7 7 22 -1 52 -11 42 -24 52 -33 27z"/>
<path d="M3288 2563 c7 -3 16 -2 19 1 4 3 -2 6 -13 5 -11 0 -14 -3 -6 -6z"/>
<path d="M6788 2523 c7 -3 16 -2 19 1 4 3 -2 6 -13 5 -11 0 -14 -3 -6 -6z"/>
<path d="M6868 2523 c7 -3 16 -2 19 1 4 3 -2 6 -13 5 -11 0 -14 -3 -6 -6z"/>
<path d="M7151 2514 c0 -11 3 -14 6 -6 3 7 2 16 -1 19 -3 4 -6 -2 -5 -13z"/>
<path d="M5518 2493 c7 -3 16 -2 19 1 4 3 -2 6 -13 5 -11 0 -14 -3 -6 -6z"/>
<path d="M6138 2493 c7 -3 16 -2 19 1 4 3 -2 6 -13 5 -11 0 -14 -3 -6 -6z"/>
<path d="M6258 2493 c7 -3 16 -2 19 1 4 3 -2 6 -13 5 -11 0 -14 -3 -6 -6z"/>
<path d="M7888 2493 c7 -3 16 -2 19 1 4 3 -2 6 -13 5 -11 0 -14 -3 -6 -6z"/>
<path d="M7988 2493 c7 -3 16 -2 19 1 4 3 -2 6 -13 5 -11 0 -14 -3 -6 -6z"/>
<path d="M9498 2493 c7 -3 16 -2 19 1 4 3 -2 6 -13 5 -11 0 -14 -3 -6 -6z"/>
<path d="M1285 2460 c-8 -13 5 -13 25 0 13 8 13 10 -2 10 -9 0 -20 -4 -23 -10z"/>
<path d="M3350 2428 c0 -3 16 -25 36 -49 39 -47 69 -101 90 -163 13 -40 13
-40 -4 -16 -48 70 -139 184 -149 187 -15 5 91 -194 146 -276 63 -92 91 -160
111 -269 10 -53 19 -83 19 -65 2 72 -84 391 -135 499 -28 60 -112 173 -114
152z"/>
<path d="M6999 2413 c-13 -16 -12 -17 4 -4 16 13 21 21 13 21 -2 0 -10 -8 -17
-17z"/>
<path d="M6823 2363 c15 -2 37 -2 50 0 12 2 0 4 -28 4 -27 0 -38 -2 -22 -4z"/>
<path d="M3279 2264 c-16 -43 -4 -118 31 -181 22 -42 30 -70 30 -107 0 -28 5
-68 11 -89 6 -22 8 -42 4 -45 -11 -12 -96 41 -130 81 -19 22 -42 62 -50 88 -9
27 -19 49 -22 49 -14 0 7 -120 27 -160 12 -24 29 -65 37 -92 25 -87 142 -170
236 -167 27 1 23 3 -20 13 -63 16 -111 47 -141 92 -29 45 -28 55 6 44 15 -5
44 -11 64 -15 22 -3 42 -14 48 -25 13 -25 79 -75 87 -66 4 3 -3 16 -14 29 -42
45 -93 180 -93 245 0 20 4 22 23 16 18 -5 15 0 -15 29 -42 42 -74 120 -88 214
-11 77 -16 85 -31 47z"/>
<path d="M6823 2273 c15 -2 39 -2 55 0 15 2 2 4 -28 4 -30 0 -43 -2 -27 -4z"/>
<path d="M3690 2236 c0 -2 7 -7 16 -10 8 -3 12 -2 9 4 -6 10 -25 14 -25 6z"/>
<path d="M3363 2211 c-18 -46 36 -181 73 -181 19 0 28 24 20 56 -6 24 -8 25
-20 9 -11 -15 -13 -15 -25 -1 -8 9 -19 45 -26 79 -11 55 -13 59 -22 38z"/>
<path d="M1105 2190 c-3 -5 1 -10 10 -10 9 0 13 5 10 10 -3 6 -8 10 -10 10 -2
0 -7 -4 -10 -10z"/>
<path d="M2978 2147 c13 -37 14 -55 6 -96 -12 -57 -3 -67 16 -21 17 41 7 117
-18 143 l-21 20 17 -46z"/>
<path d="M6095 1630 c0 -278 1 -391 2 -253 2 139 2 367 0 505 -1 139 -2 26 -2
-252z"/>
<path d="M7662 1621 c-2 -487 -3 -513 -19 -500 -16 13 -17 12 -4 -4 8 -10 18
-14 23 -9 4 4 7 237 5 518 l-2 509 -3 -514z"/>
<path d="M8265 1973 l0 -158 272 -3 273 -2 2 -693 3 -692 195 0 195 0 3 692 2
693 273 3 272 3 -275 -1 -275 0 -3 -693 -2 -692 -190 0 -190 0 -2 693 -3 692
-272 3 -272 2 -4 155 -3 155 1 -157z"/>
<path d="M3256 2061 c15 -61 43 -116 43 -86 0 32 -33 128 -45 132 -8 3 -7 -11
2 -46z"/>
<path d="M1165 2040 c3 -5 11 -10 16 -10 6 0 7 5 4 10 -3 6 -11 10 -16 10 -6
0 -7 -4 -4 -10z"/>
<path d="M3472 2027 c-19 -44 -14 -78 18 -134 28 -49 68 -88 79 -78 2 3 -5 15
-16 28 -34 37 -54 85 -62 150 -7 59 -8 61 -19 34z"/>
<path d="M3760 1976 c0 -2 7 -7 16 -10 8 -3 12 -2 9 4 -6 10 -25 14 -25 6z"/>
<path d="M1115 1960 c-3 -5 -1 -10 4 -10 6 0 11 5 11 10 0 6 -2 10 -4 10 -3 0
-8 -4 -11 -10z"/>
<path d="M997 1953 c-4 -3 -7 -11 -7 -17 0 -6 5 -5 12 2 6 6 9 14 7 17 -3 3
-9 2 -12 -2z"/>
<path d="M6950 1956 c0 -2 8 -10 18 -17 15 -13 16 -12 3 4 -13 16 -21 21 -21
13z"/>
<path d="M3410 1935 c0 -3 16 -37 35 -75 37 -74 95 -140 123 -140 11 0 5 9
-19 30 -21 17 -54 63 -78 110 -23 44 -46 80 -52 80 -5 0 -9 -2 -9 -5z"/>
<path d="M1099 1913 c-13 -16 -12 -17 4 -4 9 7 17 15 17 17 0 8 -8 3 -21 -13z"/>
<path d="M1026 1861 c-4 -6 -12 -9 -19 -7 -7 1 -9 1 -4 -1 13 -8 7 -23 -9 -23
-8 0 -12 -5 -9 -10 4 -6 -24 -51 -60 -101 -71 -96 -84 -135 -17 -50 57 72 135
191 129 197 -3 3 -8 1 -11 -5z"/>
<path d="M7040 1846 c0 -2 8 -10 18 -17 15 -13 16 -12 3 4 -13 16 -21 21 -21
13z"/>
<path d="M883 1795 c0 -22 2 -30 4 -17 2 12 2 30 0 40 -3 9 -5 -1 -4 -23z"/>
<path d="M3820 1746 c0 -2 7 -7 16 -10 8 -3 12 -2 9 4 -6 10 -25 14 -25 6z"/>
<path d="M4025 1460 c11 -5 27 -9 35 -9 9 0 8 4 -5 9 -11 5 -27 9 -35 9 -9 0
-8 -4 5 -9z"/>
<path d="M6870 945 l0 -515 -192 -3 -193 -3 195 1 195 0 3 513 c2 382 5 511
14 506 7 -4 8 -3 4 4 -4 7 -11 12 -17 12 -5 0 -9 -200 -9 -515z"/>
<path d="M7360 1456 c0 -2 8 -10 18 -17 15 -13 16 -12 3 4 -13 16 -21 21 -21
13z"/>
<path d="M2972 1378 c-68 -86 -52 -229 37 -330 33 -38 86 -68 120 -68 34 0 24
17 -13 24 -49 9 -89 51 -115 120 -29 79 -36 159 -18 219 15 45 10 60 -11 35z"/>
<path d="M3067 1373 c5 -12 3 -14 -7 -8 -8 5 -5 -5 6 -24 24 -40 50 -38 45 4
-4 39 -12 50 -22 34 -6 -10 -9 -11 -9 -1 0 6 -4 12 -10 12 -5 0 -6 -7 -3 -17z"/>
<path d="M3030 1351 c0 -6 5 -13 10 -16 6 -3 10 -11 10 -17 0 -7 -6 -6 -15 2
-8 7 -15 8 -15 2 0 -5 7 -15 15 -22 11 -9 15 -9 15 -1 0 7 5 9 10 6 6 -3 10
-11 10 -16 0 -6 -4 -7 -10 -4 -5 3 -10 1 -10 -6 0 -8 -4 -8 -15 1 -18 15 -20
-1 -2 -19 10 -11 10 -13 0 -7 -7 4 -13 3 -13 -1 0 -5 6 -15 13 -22 10 -12 9
-13 -7 -7 -16 6 -17 4 -6 -9 12 -15 15 -14 26 6 6 13 9 30 6 38 -3 9 -2 13 2
9 5 -4 14 -2 21 5 10 9 7 19 -13 49 -25 39 -32 45 -32 29z"/>
<path d="M3186 1341 c-4 -7 -5 -15 -2 -18 9 -9 19 4 14 18 -4 11 -6 11 -12 0z"/>
<path d="M7450 1346 c0 -2 8 -10 18 -17 15 -13 16 -12 3 4 -13 16 -21 21 -21
13z"/>
<path d="M3130 1313 c0 -4 5 -15 10 -23 8 -13 10 -13 10 2 0 9 -4 20 -10 23
-5 3 -10 3 -10 -2z"/>
<path d="M3226 1283 c-6 -14 -5 -15 5 -6 7 7 10 15 7 18 -3 3 -9 -2 -12 -12z"/>
<path d="M3116 1234 c-9 -23 -7 -34 4 -34 5 0 6 7 3 17 -4 11 -3 14 5 9 8 -5
10 -2 6 8 -8 20 -10 20 -18 0z"/>
<path d="M3195 1239 c-4 -6 -5 -12 -2 -15 2 -3 7 2 10 11 7 17 1 20 -8 4z"/>
<path d="M7540 1236 c0 -2 8 -10 18 -17 15 -13 16 -12 3 4 -13 16 -21 21 -21
13z"/>
<path d="M2293 1183 c15 -2 39 -2 55 0 15 2 2 4 -28 4 -30 0 -43 -2 -27 -4z"/>
<path d="M3080 1183 c0 -5 11 -20 25 -33 14 -13 25 -19 25 -13 0 5 -11 20 -25
33 -14 13 -25 19 -25 13z"/>
<path d="M5702 1125 c0 -16 2 -22 5 -12 2 9 2 23 0 30 -3 6 -5 -1 -5 -18z"/>
<path d="M4942 1120 c0 -14 2 -19 5 -12 2 6 2 18 0 25 -3 6 -5 1 -5 -13z"/>
<path d="M4552 1080 c0 -14 2 -19 5 -12 2 6 2 18 0 25 -3 6 -5 1 -5 -13z"/>
<path d="M7190 1076 c0 -2 8 -10 18 -17 15 -13 16 -12 3 4 -13 16 -21 21 -21
13z"/>
<path d="M3394 980 c0 -13 4 -16 10 -10 7 7 7 13 0 20 -6 6 -10 3 -10 -10z"/>
<path d="M3461 984 c0 -11 3 -14 6 -6 3 7 2 16 -1 19 -3 4 -6 -2 -5 -13z"/>
<path d="M1820 970 c8 -5 24 -10 34 -10 26 0 18 6 -19 14 -22 5 -26 4 -15 -4z"/>
<path d="M7280 966 c0 -2 8 -10 18 -17 15 -13 16 -12 3 4 -13 16 -21 21 -21
13z"/>
<path d="M5040 836 c0 -2 8 -10 18 -17 15 -13 16 -12 3 4 -13 16 -21 21 -21
13z"/>
<path d="M3040 755 c0 -49 -18 -80 -85 -145 -57 -56 -85 -116 -85 -182 0 -35
9 -35 80 3 89 47 120 78 127 124 6 40 5 40 -14 20 -10 -11 -23 -29 -27 -40 -8
-19 -9 -19 -16 5 -7 22 -8 20 -10 -15 -2 -39 -3 -39 -10 -10 l-8 30 -1 -27
c-1 -26 -32 -54 -45 -41 -3 3 -6 -1 -6 -9 0 -15 -19 -28 -41 -28 -28 0 10 73
91 176 55 69 60 79 60 125 0 27 -2 49 -5 49 -3 0 -5 -16 -5 -35z"/>
<path d="M3371 723 c-1 -59 -3 -63 -24 -63 -32 0 -64 -25 -69 -55 -7 -33 3
-32 30 5 15 19 31 30 48 30 32 0 37 16 26 86 l-10 59 -1 -62z"/>
<path d="M5248 733 c7 -3 16 -2 19 1 4 3 -2 6 -13 5 -11 0 -14 -3 -6 -6z"/>
<path d="M5388 733 c7 -3 16 -2 19 1 4 3 -2 6 -13 5 -11 0 -14 -3 -6 -6z"/>
<path d="M7510 686 c0 -2 8 -10 18 -17 15 -13 16 -12 3 4 -13 16 -21 21 -21
13z"/>
<path d="M3452 645 c0 -16 2 -22 5 -12 2 9 2 23 0 30 -3 6 -5 -1 -5 -18z"/>
<path d="M3062 648 c-5 -7 -6 -22 -2 -33 6 -17 8 -15 12 13 5 36 5 37 -10 20z"/>
<path d="M5889 603 l-34 -38 38 34 c34 33 42 41 34 41 -2 0 -19 -17 -38 -37z"/>
<path d="M3170 573 c-32 -15 -33 -17 -12 -21 17 -3 22 -8 17 -20 -19 -46 -19
-56 1 -48 51 22 57 21 50 -8 -10 -41 2 -48 37 -23 18 12 34 23 36 24 10 6 -23
33 -40 33 -11 0 -19 4 -19 10 0 14 39 32 58 26 9 -3 22 -2 29 2 7 4 -7 9 -32
10 -24 1 -47 -3 -50 -8 -10 -15 -45 -12 -45 5 0 7 8 19 18 24 29 17 -8 12 -48
-6z"/>
<path d="M7600 576 c0 -2 8 -10 18 -17 15 -13 16 -12 3 4 -13 16 -21 21 -21
13z"/>
<path d="M7650 516 c0 -2 8 -10 18 -17 15 -13 16 -12 3 4 -13 16 -21 21 -21
13z"/>
<path d="M7808 423 c46 -2 118 -2 160 0 42 1 5 3 -83 3 -88 0 -123 -2 -77 -3z"/>
<path d="M5188 403 c7 -3 16 -2 19 1 4 3 -2 6 -13 5 -11 0 -14 -3 -6 -6z"/>
<path d="M5448 403 c7 -3 16 -2 19 1 4 3 -2 6 -13 5 -11 0 -14 -3 -6 -6z"/>
</g>
</svg>
